<svg width="76" height="57" viewBox="0 0 76 57" fill="none" xmlns="http://www.w3.org/2000/svg">
<path fill-rule="evenodd" clip-rule="evenodd" d="M71.1916 28.6438L65.0661 13.1588C64.0516 10.6541 62.3395 8.63763 60.2279 7.26161L59.6001 5.70804C57.9134 1.53559 53.4999 -0.766235 49.1119 0.235661C44.9458 1.18683 41.9718 4.97881 42.0289 9.25272L42.0669 11.8526C41.0397 13.7295 40.469 15.8792 40.5007 18.1176L40.7416 35.3527H34.2927L34.5337 18.1176C34.5654 15.8792 33.9947 13.7295 32.9674 11.8526L33.0055 9.25272C33.0625 4.98515 30.0886 1.19317 25.9225 0.235661C21.5344 -0.772576 17.121 1.52925 15.4343 5.70804L14.8065 7.26161C12.6949 8.64397 10.9765 10.6604 9.96823 13.1715L3.86808 28.5994C1.45211 31.5544 0 35.321 0 39.4237C0 48.8593 7.67908 56.5384 17.1147 56.5384C25.2186 56.5384 32.0163 50.8758 33.7791 43.3045H41.2426C43.0054 50.8758 49.8094 56.5384 57.907 56.5384C67.3426 56.5384 75.0217 48.8593 75.0217 39.4237C75.0217 35.34 73.5822 31.5861 71.1853 28.6375L71.1916 28.6438ZM63.4048 13.8247L68.0972 25.6762C65.25 23.5583 61.7244 22.3091 57.9134 22.3091C51.1284 22.3091 45.2502 26.2786 42.4854 32.0173L42.2952 18.0922C42.2255 12.9623 45.8018 8.40301 50.805 7.25527C53.7029 6.58945 56.6071 7.13479 58.966 8.57422C59.0294 8.62495 59.0991 8.66934 59.1752 8.70104C61.0268 9.88683 62.5233 11.6433 63.4048 13.8247ZM43.8171 9.22736C43.7663 5.79681 46.1633 2.74674 49.5114 1.97947C52.9102 1.19951 56.3217 2.89259 57.7802 6.01875C55.4974 5.15636 52.9483 4.92808 50.4055 5.51146C47.7993 6.10753 45.5292 7.50257 43.8234 9.39222V9.22736H43.8171ZM25.5166 1.97947C28.8647 2.74674 31.2553 5.79681 31.2109 9.22736V9.39222C29.4988 7.50257 27.2287 6.10753 24.6289 5.51146C22.0797 4.92808 19.537 5.15002 17.2542 6.01875C18.7126 2.89259 22.1178 1.20585 25.523 1.97947H25.5166ZM11.6169 13.831C12.4983 11.6497 14.0075 9.89317 15.8591 8.70104C15.9289 8.66934 15.9986 8.63129 16.0557 8.58056C18.4209 7.12845 21.3252 6.58945 24.223 7.25527C29.2262 8.40301 32.8089 12.9559 32.7328 18.0922L32.5426 32.0173C29.7779 26.2786 23.8996 22.3091 17.1147 22.3091C13.31 22.3091 9.79067 23.5583 6.94986 25.6635L11.6169 13.831ZM17.1147 54.7565C8.66196 54.7565 1.78819 47.8828 1.78819 39.4301C1.78819 30.9774 8.66196 24.1036 17.1147 24.1036C25.5674 24.1036 32.4411 30.9774 32.4411 39.4301C32.4411 47.8828 25.5674 54.7565 17.1147 54.7565ZM34.0961 41.5226C34.1786 40.8378 34.2293 40.1403 34.2293 39.4301V39.4174L34.261 37.1473H40.7607L40.7924 39.4174V39.4301C40.7924 40.1403 40.8431 40.8378 40.9255 41.5226H34.0961ZM57.907 54.7565C49.4543 54.7565 42.5806 47.8828 42.5806 39.4301C42.5806 30.9774 49.4543 24.1036 57.907 24.1036C66.3597 24.1036 73.2335 30.9774 73.2335 39.4301C73.2335 47.8828 66.3597 54.7565 57.907 54.7565ZM17.1155 27.5697C10.5779 27.5697 5.264 32.8898 5.264 39.4212C5.264 45.9525 10.5842 51.2727 17.1155 51.2727C23.6469 51.2727 28.9671 45.9525 28.9671 39.4212C28.9671 32.8898 23.6469 27.5697 17.1155 27.5697ZM17.1155 49.4845C11.5671 49.4845 7.0522 44.9697 7.0522 39.4212C7.0522 33.8727 11.5671 29.3579 17.1155 29.3579C22.664 29.3579 27.1789 33.8727 27.1789 39.4212C27.1789 44.9697 22.664 49.4845 17.1155 49.4845ZM46.0608 39.4212C46.0608 32.8898 51.3746 27.5697 57.9123 27.5697C64.4437 27.5697 69.7638 32.8898 69.7638 39.4212C69.7638 45.9525 64.4437 51.2727 57.9123 51.2727C51.381 51.2727 46.0608 45.9525 46.0608 39.4212ZM47.849 39.4212C47.849 44.9697 52.3638 49.4845 57.9123 49.4845C63.4608 49.4845 67.9756 44.9697 67.9756 39.4212C67.9756 33.8727 63.4608 29.3579 57.9123 29.3579C52.3638 29.3579 47.849 33.8727 47.849 39.4212Z" fill="#A0A0A0"/>
</svg>
